<svg xmlns="http://www.w3.org/2000/svg" viewBox="0 0 70 70"><title>Analysis</title><g id="Layer_2" data-name="Layer 2"><g id="Layer_1-2" data-name="Layer 1"><path d="M51.94,23.71a4.52,4.52,0,0,0,4.51-4.52,4.47,4.47,0,0,0-.67-2.34l7.49-8.42a4.45,4.45,0,0,0,2.21.6A4.52,4.52,0,1,0,61,4.52a4.47,4.47,0,0,0,.67,2.34l-7.49,8.42a4.46,4.46,0,0,0-6,1.53l-4.17-.93a7.88,7.88,0,0,0,.09-1.2,9,9,0,0,0-17.39-3.4l-3-.66a4.5,4.5,0,0,0-9,.67,4.91,4.91,0,0,0,.12,1l-7,3.86a4.5,4.5,0,1,0,1.18,3,4.91,4.91,0,0,0-.12-1l7-3.86a4.48,4.48,0,0,0,7.55-1.43l2.65.59A8.11,8.11,0,0,0,26,14.68a9,9,0,0,0,17.39,3.39l4.08.91c0,.07,0,.14,0,.21A4.52,4.52,0,0,0,51.94,23.71ZM65.48,2.26a2.26,2.26,0,1,1-2.25,2.26A2.26,2.26,0,0,1,65.48,2.26ZM51.94,16.94a2.26,2.26,0,1,1-2.26,2.25A2.25,2.25,0,0,1,51.94,16.94ZM4.52,21.45a2.26,2.26,0,1,1,2.25-2.26A2.26,2.26,0,0,1,4.52,21.45Zm16.72-9.23a2.24,2.24,0,1,1,.21-.93ZM35,21.45a6.78,6.78,0,0,1-6.77-6.77q0-.36,0-.72l2.25.5a1.46,1.46,0,0,0,0,.22,4.51,4.51,0,0,0,8.34,2.38l2.3.51A6.78,6.78,0,0,1,35,21.45Zm-2.26-6.77A2.26,2.26,0,1,1,35,16.94,2.26,2.26,0,0,1,32.74,14.68Zm9,.71-2.25-.49a1.92,1.92,0,0,0,0-.22,4.51,4.51,0,0,0-8.34-2.38l-2.3-.52a6.77,6.77,0,0,1,12.89,2.9C41.77,14.92,41.76,15.16,41.74,15.39Z"/><path d="M19.19,31.61V45.16a4.53,4.53,0,0,0,4.52,4.52A4.46,4.46,0,0,0,26,49.05V70H44v-21a4.46,4.46,0,0,0,2.26.63,4.53,4.53,0,0,0,4.52-4.52V31.61a7.92,7.92,0,0,0-7.91-7.9H27.1A7.92,7.92,0,0,0,19.19,31.61ZM33.87,67.74H28.23V65.48h5.64Zm7.9,0H36.13V65.48h5.64Zm0-4.51H36.13V49.68H33.87V63.23H28.23V46.29H41.77ZM42.9,26a5.65,5.65,0,0,1,5.65,5.64V45.16a2.26,2.26,0,0,1-4.52,0V31.61H41.77V44H28.23V31.61H26V45.16a2.26,2.26,0,0,1-4.52,0V31.61A5.65,5.65,0,0,1,27.1,26Z"/><path d="M62.1,24.84a7.89,7.89,0,0,0-3.39,15v8.68a3.39,3.39,0,1,0,6.77,0V39.87a7.89,7.89,0,0,0-3.38-15Zm1.13,23.71a1.13,1.13,0,0,1-2.26,0v-8a7,7,0,0,0,1.13.1,7.08,7.08,0,0,0,1.13-.1ZM62.1,38.39a5.65,5.65,0,1,1,5.64-5.65A5.66,5.66,0,0,1,62.1,38.39Z"/><rect x="60.97" y="54.19" width="2.26" height="2.26"/><rect x="60.97" y="58.71" width="2.26" height="2.26"/><rect x="60.97" y="63.23" width="2.26" height="2.26"/><rect x="60.97" y="67.74" width="2.26" height="2.26"/><path d="M11.48,29.35a4.27,4.27,0,0,0-3.05,1.27l-.53.53-.52-.53A4.32,4.32,0,0,0,0,33.68a4.27,4.27,0,0,0,1.27,3L7.9,43.37l6.64-6.64a4.27,4.27,0,0,0,1.27-3A4.33,4.33,0,0,0,11.48,29.35Zm1.46,5.79-5,5-5-5a2.11,2.11,0,0,1-.6-1.46,2.07,2.07,0,0,1,2.06-2.07,2,2,0,0,1,1.46.61L7.9,34.34,10,32.22a2.06,2.06,0,1,1,2.92,2.92Z"/><rect x="6.77" y="49.68" width="2.26" height="2.26"/><rect x="6.77" y="45.16" width="2.26" height="2.26"/><rect x="6.77" y="54.19" width="2.26" height="2.26"/><rect x="6.77" y="58.71" width="2.26" height="2.26"/><rect x="6.77" y="63.23" width="2.26" height="2.26"/><rect x="6.77" y="67.74" width="2.26" height="2.26"/></g></g></svg>