<svg xmlns="http://www.w3.org/2000/svg" viewBox="0 0 70 70"><title>Design</title><g id="Layer_2" data-name="Layer 2"><g id="Layer_1-2" data-name="Layer 1"><circle cx="9.03" cy="21.45" r="1.13"/><circle cx="13.55" cy="21.45" r="1.13"/><circle cx="18.06" cy="21.45" r="1.13"/><path d="M7.9,62.1H22.43L7.9,48.42Zm2.26-8.45,6.58,6.19H10.16Z"/><path d="M70,6.77V0H63.23V2.26H40.65V0H33.87V6.77h6.78V4.52h3.81a13.54,13.54,0,0,0-6.07,11.29H6.77a3.39,3.39,0,0,0-3.38,3.38V33.34a2.11,2.11,0,0,0-2.23-.52A2.15,2.15,0,0,0,0,35V66.61A3.39,3.39,0,0,0,3.39,70H37.26c1.48,0,2-.73,2.16-1.17a2.07,2.07,0,0,0-.77-2.33l-1.08-1h29A3.39,3.39,0,0,0,70,62.1V19.19a3.39,3.39,0,0,0-3.39-3.38H65.48A13.52,13.52,0,0,0,59.41,4.52h3.82V6.77ZM65.48,2.26h2.26V4.52H65.48ZM38.39,4.52H36.13V2.26h2.26ZM5.65,19.19a1.13,1.13,0,0,1,1.12-1.13H38.58a0,0,0,0,0,0,0,13.45,13.45,0,0,0,3.27,6.76H5.65V19.19ZM3.39,67.74h0a1.13,1.13,0,0,1-1.13-1.13V65.48H4.52V63.23H2.26V61H4.52V58.71H2.26V56.45H4.52V54.19H2.26V51.93H4.52V49.68H2.26V47.42H4.52V45.16H2.26V42.9H4.52V40.64H2.26V35.35L14.07,46.47l3.41,3.21L36.67,67.74Zm6.77-28V31.61H35V47.42H18.37ZM67.74,62.1a1.14,1.14,0,0,1-1.13,1.13H35.17L20.77,49.68H37.26V29.35H7.9v8.22L5.65,35.44V27.1H44.51c.22.14.42.3.65.43V28.8A2.83,2.83,0,0,0,44,31.05a2.78,2.78,0,0,0,.58,1.69,2.79,2.79,0,0,0-.58,1.7,2.83,2.83,0,0,0,2.82,2.82H57a2.83,2.83,0,0,0,2.82-2.82,2.79,2.79,0,0,0-.58-1.7,2.76,2.76,0,0,0,.58-1.69,2.83,2.83,0,0,0-1.13-2.25V27.53c.23-.13.43-.29.65-.43h8.38ZM46.85,33.87H57A.57.57,0,0,1,57,35H46.85a.57.57,0,0,1,0-1.13Zm-.56-2.82a.57.57,0,0,1,.56-.57H57a.57.57,0,0,1,.56.57.56.56,0,0,1-.56.56H46.85A.56.56,0,0,1,46.29,31.05Zm19-13h1.32a1.14,1.14,0,0,1,1.13,1.13v5.65H62a13.47,13.47,0,0,0,3.24-6.6A.78.78,0,0,0,65.29,18.06Zm-2.06-2.25a11.23,11.23,0,0,1-6.16,10l-.62.32v2.06H53.06V20.16a4.52,4.52,0,1,0-2.25,0v8.07H47.42V26.17l-.61-.32a11.28,11.28,0,1,1,16.42-10ZM51.94,18.06a2.26,2.26,0,1,1,2.25-2.25A2.26,2.26,0,0,1,51.94,18.06Z"/><rect x="39.52" y="40.65" width="25.97" height="2.26"/><rect x="39.52" y="45.16" width="25.97" height="2.26"/><rect x="39.52" y="49.68" width="25.97" height="2.26"/><rect x="39.52" y="54.19" width="25.97" height="2.26"/></g></g></svg>