<svg xmlns="http://www.w3.org/2000/svg" viewBox="0 0 225.21 63.47"><defs><style>.cls-1{isolation:isolate;}.cls-2{fill:#231f20;}.cls-3{fill:#010101;}.cls-4{fill:#fff1c6;}.cls-5{fill:#edc86a;}.cls-6{fill:#a09f9f;}.cls-7{fill:#f2b1d0;}</style></defs><title>andyandUX</title><g id="Layer_2" data-name="Layer 2"><g id="Layer_1-2" data-name="Layer 1"><g id="Layer_2-2" data-name="Layer 2"><g id="Layer_1-2-2" data-name="Layer 1-2"><g class="cls-1"><path class="cls-2" d="M17.6,23.56H8.06L6.48,28.2H0L9.32,2.93h7.1L25.74,28.2H19.19ZM16,18.87,12.85,9.52l-3.2,9.35Z"/><path class="cls-2" d="M52.52,28.2H46.37L36.07,12.57V28.2H29.92V2.75h6.15l10.3,15.77V2.75h6.15Z"/><path class="cls-2" d="M79.87,22.06a11.28,11.28,0,0,1-4.61,4.52,14.71,14.71,0,0,1-7.08,1.62H58.57V2.75h9.61a14.94,14.94,0,0,1,7.1,1.58,11.09,11.09,0,0,1,4.59,4.46,13.52,13.52,0,0,1,1.6,6.63A13.56,13.56,0,0,1,79.87,22.06Zm-6.63-1.28a7.07,7.07,0,0,0,2-5.36,7.05,7.05,0,0,0-2-5.36,7.75,7.75,0,0,0-5.6-1.91H64.73V22.69h2.91A7.75,7.75,0,0,0,73.24,20.78Z"/><path class="cls-2" d="M108.75,2.75l-8.82,17V28.2H93.74V19.74l-8.82-17H92l4.9,10.36,4.89-10.36Z"/></g><g class="cls-1"><path class="cls-2" d="M50.87,55.78h-12l-2.48,6.59h-1.8L44,37.67h1.8l9.33,24.7H53.31Zm-.51-1.33-5.51-14.8-5.54,14.8Z"/><path class="cls-2" d="M78.84,62.37H77.22L62.39,39.76V62.37H60.77V37h1.62L77.22,59.63V37h1.62Z"/><path class="cls-2" d="M103.53,59q-3.45,3.34-9.93,3.35H86.47V37H93.6q6.48,0,9.93,3.35T107,49.66Q107,55.68,103.53,59Zm-1.18-1.08q3-3,3-8.28t-3-8.28q-3-3-8.8-3H88.09V60.89h5.44Q99.35,60.89,102.35,57.94Z"/></g><path class="cls-2" d="M133.85,3.07v35.2q0,7.89,3.49,11.76t9.79,3.86q6.21,0,9.7-3.86t3.48-11.76V3.07h9.58v35.2q0,12.18-6.3,18.43T147,63q-10.26,0-16.47-6.26t-6.21-18.43V3.07Z"/><path class="cls-2" d="M213.61,62.4,174.71,2.14h11.6l38.9,60.26Z"/><path class="cls-3" d="M181.59,63.4h-.18a.23.23,0,0,1-.11-.18l-.23-2.34a.29.29,0,0,1,.1-.22.25.25,0,0,1,.24,0L184.23,62a.24.24,0,0,1,.14.23.28.28,0,0,1-.17.22l-2.59,1Z"/><path class="cls-3" d="M181.59,63.4h-.18a.23.23,0,0,1-.11-.18l-.23-2.34a.29.29,0,0,1,.1-.22.25.25,0,0,1,.24,0L184.23,62a.24.24,0,0,1,.14.23.28.28,0,0,1-.17.22l-2.59,1Zm0-2.16.15,1.59,1.78-.66Z"/><path class="cls-4" d="M184.19,62.4H184L181.21,61a.35.35,0,0,1-.14-.2l-.54-5.6a.25.25,0,0,1,.19-.26l2.22-.51a.24.24,0,0,1,.29.18l.46,2,2-.47a.25.25,0,0,1,.29.18l.46,2,2-.46a.24.24,0,0,1,.29.18l.52,2.22a.23.23,0,0,1-.15.28l-4.9,1.83Z"/><path class="cls-3" d="M184.19,62.4H184L181.21,61a.35.35,0,0,1-.14-.2l-.54-5.6a.25.25,0,0,1,.19-.26l2.22-.51a.24.24,0,0,1,.29.18l.46,2,2-.47a.25.25,0,0,1,.29.18l.46,2,2-.46a.24.24,0,0,1,.29.18l.52,2.22a.23.23,0,0,1-.15.28l-4.9,1.83Zm-2.65-1.76,2.62,1.26,4.55-1.7-.39-1.8-2,.46a.25.25,0,0,1-.29-.18l-.46-2-2,.46a.25.25,0,0,1-.29-.18l-.46-2-1.82.42Z"/><path class="cls-5" d="M189.06,60.58a.17.17,0,0,1-.1,0,.21.21,0,0,1-.19-.19l-.46-2-2,.46a.25.25,0,0,1-.29-.18l-.46-2-2,.46a.25.25,0,0,1-.29-.18l-.46-2-2,.47a.27.27,0,0,1-.25-.09.26.26,0,0,1,0-.27L212.06,5.4a.23.23,0,0,1,.32-.08h0l8.23,5.13a.23.23,0,0,1,.08.33h0L189.22,60.5A.3.3,0,0,1,189.06,60.58Z"/><path class="cls-3" d="M189.06,60.58a.17.17,0,0,1-.1,0,.21.21,0,0,1-.19-.19l-.46-2-2,.46a.25.25,0,0,1-.29-.18l-.46-2-2,.46a.25.25,0,0,1-.29-.18l-.46-2-2,.47a.27.27,0,0,1-.25-.09.26.26,0,0,1,0-.27L212.06,5.4a.23.23,0,0,1,.32-.08h0l8.23,5.13a.23.23,0,0,1,.08.33h0L189.22,60.5A.3.3,0,0,1,189.06,60.58Zm-2.62-2.18,2-.46a.24.24,0,0,1,.29.18l.39,1.66,31-49L212.3,5.91l-31.05,49,1.66-.38a.24.24,0,0,1,.29.18l.46,2,2-.47a.25.25,0,0,1,.29.18l.47,2Z"/><path class="cls-3" d="M183.05,54.94a.31.31,0,0,1-.19,0,.24.24,0,0,1-.08-.33h0l11.1-17.75a.22.22,0,0,1,.3-.08h0a.23.23,0,0,1,.1.3l0,0L183.2,54.84A.31.31,0,0,1,183.05,54.94Z"/><path class="cls-3" d="M185.8,56.64a.31.31,0,0,1-.19,0,.24.24,0,0,1-.08-.32h0l6.23-10a.24.24,0,0,1,.33-.08.23.23,0,0,1,.08.33h0l-6.24,10A.22.22,0,0,1,185.8,56.64Z"/><path class="cls-3" d="M200.11,39.79a.31.31,0,0,1-.19,0,.22.22,0,0,1-.09-.3v0l17.87-28.15a.23.23,0,0,1,.31-.09h0a.22.22,0,0,1,.08.31v0l-17.8,28.11A.31.31,0,0,1,200.11,39.79Z"/><path class="cls-6" d="M220.53,10.92a.31.31,0,0,1-.19,0l-8.23-5.15a.24.24,0,0,1-.08-.32h0l1-1.65a.23.23,0,0,1,.31-.09h0l8.23,5.13a.22.22,0,0,1,.08.31v0l-1,1.67A.22.22,0,0,1,220.53,10.92Z"/><path class="cls-3" d="M220.53,10.92a.31.31,0,0,1-.19,0l-8.23-5.15a.24.24,0,0,1-.08-.32h0l1-1.65a.23.23,0,0,1,.31-.09h0l8.23,5.13a.22.22,0,0,1,.08.31v0l-1,1.67A.22.22,0,0,1,220.53,10.92Zm-8-5.44,7.87,4.92.78-1.25-7.83-4.88Z"/><path class="cls-6" d="M219.5,12.56h-.19L211.08,7.4a.22.22,0,0,1-.09-.3v0l1-1.66a.23.23,0,0,1,.32-.08h0l8.24,5.13a.24.24,0,0,1,.07.33l-1,1.67A.3.3,0,0,1,219.5,12.56Z"/><path class="cls-3" d="M219.5,12.56h-.19L211.08,7.4a.22.22,0,0,1-.09-.3v0l1-1.66a.23.23,0,0,1,.32-.08h0l8.24,5.13a.24.24,0,0,1,.07.33l-1,1.67A.3.3,0,0,1,219.5,12.56Zm-8-5.44L219.33,12l.78-1.25-7.83-4.88Z"/><path class="cls-7" d="M221.56,9.25a.31.31,0,0,1-.19,0l-8.21-5.12a.33.33,0,0,1-.1-.34l.85-1.39a5.09,5.09,0,0,1,7-1.63h0a5.1,5.1,0,0,1,1.62,7l-.82,1.38S221.62,9.24,221.56,9.25Z"/><path class="cls-3" d="M221.56,9.25a.31.31,0,0,1-.19,0l-8.21-5.12a.33.33,0,0,1-.1-.34l.85-1.39a5.09,5.09,0,0,1,7-1.63h0a5.1,5.1,0,0,1,1.62,7l-.82,1.38S221.62,9.24,221.56,9.25Zm-7.94-5.44,7.81,4.88.71-1.14a4.61,4.61,0,0,0-7.83-4.86Z"/></g></g></g></g></svg>