<svg xmlns="http://www.w3.org/2000/svg" viewBox="0 0 70 70"><title>Research</title><g id="Layer_2" data-name="Layer 2"><g id="Layer_1-2" data-name="Layer 1"><path d="M63.43,21.45a3.38,3.38,0,1,0,0-2.26H40.59A20.27,20.27,0,0,0,37,8.67l.6-.28a3.36,3.36,0,0,0,4.28-.28L48.59,12a3.38,3.38,0,1,0,6.73.45,3.26,3.26,0,0,0-.16-1l9.58-5.22a3.43,3.43,0,0,0,1.87.56,3.39,3.39,0,1,0-3.38-3.38,3.19,3.19,0,0,0,.16,1L53.81,9.6a3.36,3.36,0,0,0-4.19.36L42.86,6.09a3.13,3.13,0,0,0,0-.44,3.39,3.39,0,1,0-6.65.85l-.76.35A20.3,20.3,0,1,0,15.81,40.12V44H11.29v2.26h2.26V63.23a6.78,6.78,0,0,0,13.55,0V46.29h2.25V44H24.84V40.12a20.36,20.36,0,0,0,12.81-9.23,3.36,3.36,0,0,0,5.39.85l7.8,2.93c0,.11,0,.22,0,.33a3.39,3.39,0,1,0,6.77,0s0-.1,0-.15l6.57-.94a3.37,3.37,0,1,0-.91-2.3c0,.05,0,.1,0,.15l-6.58.94a3.37,3.37,0,0,0-2.47-1.09,3.43,3.43,0,0,0-2.4,1L44,29.69c0-.11,0-.22,0-.34A3.39,3.39,0,0,0,40.65,26a3.35,3.35,0,0,0-.85.12,20.29,20.29,0,0,0,.79-4.64Zm3.18-2.26a1.13,1.13,0,1,1-1.13,1.13A1.13,1.13,0,0,1,66.61,19.19Zm0-16.93a1.13,1.13,0,0,1,0,2.26,1.13,1.13,0,1,1,0-2.26Zm-14.67,9a1.13,1.13,0,1,1-1.13,1.13A1.13,1.13,0,0,1,51.94,11.29ZM39.52,4.52a1.13,1.13,0,1,1-1.13,1.13A1.13,1.13,0,0,1,39.52,4.52Zm27.09,26a1.13,1.13,0,1,1-1.13,1.13A1.13,1.13,0,0,1,66.61,30.48ZM54.19,33.87A1.13,1.13,0,1,1,53.06,35,1.13,1.13,0,0,1,54.19,33.87ZM24.84,63.23a4.52,4.52,0,0,1-9,0V46.29h9ZM18.06,44V40.51a21.25,21.25,0,0,0,2.26.14,20.93,20.93,0,0,0,2.26-.14V44Zm2.26-5.64a18.07,18.07,0,1,1,13-30.56L30,9.34A14.67,14.67,0,1,0,32,29.22l3.61.73A18.05,18.05,0,0,1,20.32,38.39ZM18.06,16.94a3.39,3.39,0,1,0,3.18,4.51H32.69A12.37,12.37,0,0,1,31,26.72l-2.88-.58A3.35,3.35,0,1,0,28,28.42l1.49.3a12.43,12.43,0,1,1-1.72-18.34l-.93.42a3.33,3.33,0,0,0-2-.64,3.39,3.39,0,1,0,3.39,3.39,3.51,3.51,0,0,0-.13-.86L29.54,12a12.27,12.27,0,0,1,3.14,7.16H21.24A3.37,3.37,0,0,0,18.06,16.94Zm1.13,3.38a1.13,1.13,0,1,1-1.13-1.13A1.12,1.12,0,0,1,19.19,20.32ZM26,27.1A1.13,1.13,0,1,1,24.84,26,1.14,1.14,0,0,1,26,27.1Zm0-13.55a1.13,1.13,0,1,1-1.13-1.13A1.14,1.14,0,0,1,26,13.55ZM36.71,27.87l-3.42-.69a14.41,14.41,0,0,0,1.65-5.73h3.39A17.77,17.77,0,0,1,36.71,27.87Zm-1.77-8.68a14.54,14.54,0,0,0-3.25-8.13l3.16-1.44a18,18,0,0,1,3.48,9.57Zm5.71,9a1.13,1.13,0,1,1-1.13,1.12A1.12,1.12,0,0,1,40.65,28.23Z"/></g></g></svg>